<?xml version="1.0" standalone="no"?>
<!DOCTYPE svg PUBLIC "-//W3C//DTD SVG 20010904//EN"
 "http://www.w3.org/TR/2001/REC-SVG-20010904/DTD/svg10.dtd">
<svg version="1.0" xmlns="http://www.w3.org/2000/svg"
 width="391.000000pt" height="401.000000pt" viewBox="0 0 391.000000 401.000000"
 preserveAspectRatio="xMidYMid meet">
<metadata>
Created by potrace 1.15, written by Peter Selinger 2001-2017
</metadata>
<g transform="translate(0.000000,401.000000) scale(0.100000,-0.100000)"
fill="#000000" stroke="none">
<path d="M1805 3984 c-16 -2 -72 -9 -124 -15 -289 -34 -641 -170 -891 -347
-125 -88 -366 -328 -453 -452 -75 -106 -193 -336 -230 -450 -47 -143 -78 -308
-84 -447 l-6 -133 152 0 151 0 0 -310 0 -310 -150 0 c-113 0 -150 -3 -150 -12
0 -7 41 -206 90 -443 l90 -430 0 -292 0 -292 26 -20 c34 -26 54 -26 88 0 23
18 26 28 26 80 0 59 0 59 30 59 29 0 30 -1 30 -49 0 -81 51 -127 108 -97 36
18 42 33 42 97 0 48 1 49 30 49 30 0 30 0 30 -59 0 -52 3 -62 26 -80 34 -27
57 -26 90 2 22 19 28 34 32 80 4 52 7 57 28 57 22 0 24 -4 24 -51 0 -43 5 -55
29 -80 35 -34 59 -36 95 -8 23 18 26 28 26 80 0 59 0 59 30 59 30 0 30 0 30
-59 0 -52 3 -62 26 -80 36 -28 60 -26 95 8 24 25 29 38 29 79 l0 50 119 4
c117 3 120 4 150 32 17 17 31 34 31 39 0 27 68 98 119 125 80 42 137 46 350
22 218 -24 279 -25 386 -6 603 106 1122 484 1393 1014 83 162 136 329 168 537
25 162 15 439 -20 590 -57 242 -138 432 -268 622 -88 131 -294 345 -419 439
-347 258 -732 389 -1174 399 -93 2 -183 2 -200 -1z m-461 -1867 c127 -58 201
-204 175 -344 -20 -105 -69 -174 -161 -224 -58 -31 -70 -34 -148 -34 -71 0
-94 4 -140 26 -72 34 -117 79 -153 157 -27 58 -29 70 -25 145 7 120 53 200
153 262 79 49 206 54 299 12z m-609 -629 c77 -133 152 -264 168 -290 l27 -48
-340 0 -341 0 25 43 c15 23 90 153 169 289 78 136 144 248 147 248 3 0 68
-109 145 -242z"/>
</g>
</svg>
